<svg id="Capa_1" enable-background="new 0 0 512.005 512.005" height="512" viewBox="0 0 512.005 512.005" width="512" xmlns="http://www.w3.org/2000/svg"><g><path d="m41 215v49.187c-22.978 2.025-41 21.309-41 44.813v68c0 24.853 20.147 45 45 45h11c8.284 0 15-6.716 15-15 0-44.058 0-146.486 0-192 0-86.14 59.17-158.71 139-179.21v-5.79c0-9.44 2.19-18.38 6.1-26.33-98.15 18.314-175.1 104.687-175.1 211.33z"/><path d="m135.29 117.87c20.93 4.41 43.28 1.5 62.89-9.19 3.84-2.09 7.78-3.97 11.82-5.62v-36.09c-29.71 9.25-55.61 27.22-74.71 50.9z"/><path d="m482 0h-212c-16.569 0-30 13.432-30 30v116c0 16.568 13.431 30 30 30h4v33c0 12.901 15.169 19.63 24.76 11.39l51.79-44.39h131.45c16.569 0 30-13.432 30-30v-116c0-16.568-13.431-30-30-30zm-169 103h-16c-8.28 0-15-6.72-15-15s6.72-15 15-15h16c8.28 0 15 6.72 15 15s-6.72 15-15 15zm72 0h-16c-8.28 0-15-6.72-15-15s6.72-15 15-15h16c8.28 0 15 6.72 15 15s-6.72 15-15 15zm72 0h-16c-8.28 0-15-6.72-15-15s6.72-15 15-15h16c8.28 0 15 6.72 15 15s-6.72 15-15 15z"/><path d="m141 232c-22.091 0-40 17.908-40 40v144c0 22.092 20.909 40 43 40 22.221 0 37-18.052 37-40v-144c0-22.092-17.909-40-40-40z"/><path d="m470.984 264.186c-.015-12.59-.042-30.583-.082-43.239-.026-8.266-6.734-14.946-15-14.946-8.361 0-15.045 6.776-15.015 15.047.158 44.195.113 84.617.113 230.952 0 16.542-13.458 30-30 30h-115c-8.284 0-15 6.716-15 15s6.716 15 15 15h115c33.084 0 60-26.916 60-60v-30.187c22.978-2.025 41-21.31 41-44.813v-68c0-23.509-18.031-42.797-41.016-44.814z"/><path d="m368 456c23.65 0 43-19.35 43-43v-141c0-22.092-17.909-40-40-40-22.091 0-40 17.908-40 40v147c0 20.378 16.509 37 37 37z"/></g></svg>