<svg width="20" height="20" viewBox="0 0 20 20" fill="none" xmlns="http://www.w3.org/2000/svg">
<g clip-path="url(#clip0_2322_18081)">
<path fill-rule="evenodd" clip-rule="evenodd" d="M9.10714 0H3.57143C2.62423 0 1.71582 0.376274 1.04605 1.04605C0.376274 1.71582 0 2.62423 0 3.57143L0 9.10714H9.10714V0ZM0 16.4286V10.8929H9.10714V20H3.57143C2.62423 20 1.71582 19.6237 1.04605 18.954C0.376274 18.2842 0 17.3758 0 16.4286ZM10.8929 20V10.8929H20V16.4286C20 17.3758 19.6237 18.2842 18.954 18.954C18.2842 19.6237 17.3758 20 16.4286 20H10.8929ZM20 3.57143V9.10714H10.8929V0H16.4286C17.3758 0 18.2842 0.376274 18.954 1.04605C19.6237 1.71582 20 2.62423 20 3.57143ZM2.90429 3.89286C2.66749 3.89286 2.44038 3.98693 2.27294 4.15437C2.1055 4.32181 2.01143 4.54891 2.01143 4.78571C2.01143 5.02251 2.1055 5.24962 2.27294 5.41706C2.44038 5.5845 2.66749 5.67857 2.90429 5.67857H3.79714V6.57143C3.79714 6.80823 3.89121 7.03533 4.05865 7.20277C4.2261 7.37022 4.4532 7.46429 4.69 7.46429C4.9268 7.46429 5.1539 7.37022 5.32135 7.20277C5.48879 7.03533 5.58286 6.80823 5.58286 6.57143V5.67857H6.47571C6.71251 5.67857 6.93962 5.5845 7.10706 5.41706C7.2745 5.24962 7.36857 5.02251 7.36857 4.78571C7.36857 4.54891 7.2745 4.32181 7.10706 4.15437C6.93962 3.98693 6.71251 3.89286 6.47571 3.89286H5.58286V3C5.58286 2.7632 5.48879 2.5361 5.32135 2.36865C5.1539 2.20121 4.9268 2.10714 4.69 2.10714C4.4532 2.10714 4.2261 2.20121 4.05865 2.36865C3.89121 2.5361 3.79714 2.7632 3.79714 3V3.89286H2.90429ZM12.8929 4.78571C12.8929 4.29143 13.2929 3.89286 13.7857 3.89286H16.6429C16.8797 3.89286 17.1068 3.98693 17.2742 4.15437C17.4416 4.32181 17.5357 4.54891 17.5357 4.78571C17.5357 5.02251 17.4416 5.24962 17.2742 5.41706C17.1068 5.5845 16.8797 5.67857 16.6429 5.67857H13.7857C13.5489 5.67857 13.3218 5.5845 13.1544 5.41706C12.9869 5.24962 12.8929 5.02251 12.8929 4.78571ZM13.7857 12.9029C13.5489 12.9029 13.3218 12.9969 13.1544 13.1644C12.9869 13.3318 12.8929 13.5589 12.8929 13.7957C12.8929 14.0325 12.9869 14.2596 13.1544 14.4271C13.3218 14.5945 13.5489 14.6886 13.7857 14.6886H16.6429C16.8797 14.6886 17.1068 14.5945 17.2742 14.4271C17.4416 14.2596 17.5357 14.0325 17.5357 13.7957C17.5357 13.5589 17.4416 13.3318 17.2742 13.1644C17.1068 12.9969 16.8797 12.9029 16.6429 12.9029H13.7857ZM12.8929 16.6529C12.8929 16.16 13.2929 15.76 13.7857 15.76H16.6429C16.8797 15.76 17.1068 15.8541 17.2742 16.0215C17.4416 16.189 17.5357 16.4161 17.5357 16.6529C17.5357 16.8897 17.4416 17.1168 17.2742 17.2842C17.1068 17.4516 16.8797 17.5457 16.6429 17.5457H13.7857C13.6685 17.5457 13.5524 17.5226 13.444 17.4778C13.3357 17.4329 13.2373 17.3671 13.1544 17.2842C13.0715 17.2013 13.0057 17.1029 12.9608 16.9945C12.916 16.8862 12.8929 16.7701 12.8929 16.6529ZM2.54429 13.1643C2.6272 13.0814 2.72564 13.0156 2.83398 12.9707C2.94232 12.9258 3.05844 12.9027 3.17571 12.9027C3.29299 12.9027 3.40911 12.9258 3.51745 12.9707C3.62579 13.0156 3.72423 13.0814 3.80714 13.1643L4.69 14.0471L5.57286 13.1643C5.74032 12.9968 5.96745 12.9027 6.20429 12.9027C6.44112 12.9027 6.66825 12.9968 6.83571 13.1643C7.00318 13.3318 7.09726 13.5589 7.09726 13.7957C7.09726 14.0325 7.00318 14.2597 6.83571 14.4271L5.95286 15.31L6.83571 16.1929C6.91863 16.2758 6.98441 16.3742 7.02929 16.4826C7.07416 16.5909 7.09726 16.707 7.09726 16.8243C7.09726 16.9416 7.07416 17.0577 7.02929 17.166C6.98441 17.2744 6.91863 17.3728 6.83571 17.4557C6.75279 17.5386 6.65435 17.6044 6.54601 17.6493C6.43767 17.6942 6.32155 17.7173 6.20429 17.7173C6.08702 17.7173 5.9709 17.6942 5.86256 17.6493C5.75422 17.6044 5.65578 17.5386 5.57286 17.4557L4.69 16.5729L3.80714 17.4557C3.72422 17.5386 3.62578 17.6044 3.51744 17.6493C3.4091 17.6942 3.29298 17.7173 3.17571 17.7173C3.05845 17.7173 2.94233 17.6942 2.83399 17.6493C2.72565 17.6044 2.62721 17.5386 2.54429 17.4557C2.46137 17.3728 2.39559 17.2744 2.35071 17.166C2.30584 17.0577 2.28274 16.9416 2.28274 16.8243C2.28274 16.707 2.30584 16.5909 2.35071 16.4826C2.39559 16.3742 2.46137 16.2758 2.54429 16.1929L3.42714 15.31L2.54429 14.4271C2.46135 14.3442 2.39556 14.2458 2.35068 14.1375C2.30579 14.0291 2.28269 13.913 2.28269 13.7957C2.28269 13.6784 2.30579 13.5623 2.35068 13.454C2.39556 13.3456 2.46135 13.2472 2.54429 13.1643Z" fill="white"/>
</g>
<defs>
<clipPath id="clip0_2322_18081">
<rect width="20" height="20" fill="white"/>
</clipPath>
</defs>
</svg>
